<svg xmlns="http://www.w3.org/2000/svg" viewBox="0 0 151.9 53.1"><g fill="#7084c1"><path d="M70.7 29.6c-.7 0-1.3 0-1.9-.2s-1.1-.4-1.6-.8c-.5-.3-.8-.8-1.1-1.2-.3-.5-.4-1.1-.4-1.8 0-.1 0-.2.1-.3 0 0 .2-.1.3-.1h1.7c.2 0 .3 0 .4.1 0 0 .1.2.2.3 0 .4.2.8.4 1.1s.5.5.8.6.7.2 1.1.2c.8 0 1.3-.2 1.7-.7q.6-.75.6-2.1v-5.8h-6.1c-.1 0-.2 0-.3-.1 0 0-.1-.2-.1-.3v-1.3c0-.1 0-.2.1-.3 0 0 .2-.1.3-.1h8.3c.1 0 .2 0 .3.1 0 0 .1.2.1.3v7.6c0 1-.2 1.9-.6 2.6s-1 1.3-1.7 1.7-1.6.6-2.6.6ZM82.8 29.6c-1.1 0-2.1-.2-2.8-.5s-1.3-.8-1.7-1.3-.6-1.1-.6-1.7c0-.1 0-.2.1-.3s.2-.1.3-.1h2l.2.2c0 .2.2.5.4.7s.5.4.8.6.8.2 1.3.2c.9 0 1.5-.1 1.9-.4s.6-.7.6-1.2-.1-.6-.3-.8-.6-.4-1.1-.6-1.1-.4-1.9-.6c-.9-.2-1.7-.5-2.3-.8s-1.1-.7-1.4-1.2-.5-1.1-.5-1.8.2-1.3.6-1.9c.4-.5.9-1 1.6-1.3s1.5-.5 2.5-.5 1.5.1 2.1.3 1.1.5 1.5.8.7.7.9 1.1.3.8.3 1.1v.3s-.2.1-.3.1h-2s-.2-.1-.2-.3c0-.4-.3-.7-.7-1s-.9-.4-1.5-.4-1.2.1-1.6.4c-.4.2-.6.6-.6 1.1s0 .6.3.8c.2.2.5.4 1 .6.4.2 1 .3 1.7.5 1 .2 1.9.5 2.5.8.7.3 1.1.7 1.4 1.1.3.5.5 1.1.5 1.8s-.2 1.5-.6 2-1 1-1.8 1.3-1.7.5-2.7.5ZM60.1 36.2h.5V38c-.4.4-1.1.6-1.7.6-1.4 0-2.4-1-2.4-2.3s1-2.3 2.4-2.3 1.3.2 1.7.7l-.3.3c-.4-.4-.8-.5-1.4-.5-1.1 0-2 .8-2 1.9s.8 1.9 2 1.9.8 0 1.2-.4v-1.6ZM63.8 34.3v1.8h2.4v.4h-2.4v2h-.5v-4.6h3.2v.4zM72.6 33.9v4.6h-.4l-3-3.7v3.7h-.5v-4.6h.4l3 3.7v-3.7zM81.2 38.1v.4H78v-.3l1.9-1.9c.5-.5.6-.8.6-1.1 0-.5-.4-.9-1.1-.9s-1 .2-1.3.5l-.3-.3c.4-.4.9-.7 1.6-.7s1.5.5 1.5 1.2-.1.8-.8 1.4l-1.6 1.5H81ZM83.1 36.2c0-1.5.8-2.3 1.8-2.3s1.8.9 1.8 2.3-.8 2.3-1.8 2.3-1.8-.9-1.8-2.3m3.1 0c0-1.2-.6-1.9-1.4-1.9s-1.4.7-1.4 1.9.6 1.9 1.4 1.9 1.4-.7 1.4-1.9M91.9 38.1v.4h-3.2v-.3l1.9-1.9c.5-.5.6-.8.6-1.1 0-.5-.4-.9-1.1-.9s-1 .2-1.3.5l-.3-.3c.4-.4.9-.7 1.6-.7s1.5.5 1.5 1.2-.1.8-.8 1.4l-1.6 1.5h2.5ZM97.5 37.3h-.9v1.2h-.5v-1.2h-2.6V37l2.4-3.1h.5l-2.4 3h2v-1.1h.5v1.1h.9v.4Z"/></g><path fill="#94a7d6" d="M122.2 26.6h11.3c2.1 0 3.1-2.5 1.6-4L118.2 5.9c-.7-.7-1.6-1.1-2.6-1.1h-14.1c-.5 0-.8.6-.4 1l21 20.8Z"/><path fill="#94a7d6" d="m130.8 18.1 6.8 6.8c.9.9.9 2.4 0 3.3l-19.3 19.1c-.7.7-1.6 1.1-2.6 1.1h-14.1c-.5 0-.8-.6-.4-1z"/><path fill="#7084c1" d="m122.2 26.6 4.9-12.1 3.7 3.6z"/><path fill="#94a7d6" d="M29.6 26.6H18.3c-2.1 0-3.1 2.5-1.6 4l16.9 16.7c.7.7 1.6 1.1 2.6 1.1h14.1c.5 0 .8-.6.4-1l-21-20.8Z"/><path fill="#7084c1" d="m29.6 26.6-4.8 12-3.7-3.6z"/><path fill="#94a7d6" d="m21.1 35-6.8-6.8c-.9-.9-.9-2.4 0-3.3L33.5 5.8c.7-.7 1.6-1.1 2.6-1.1h14.1c.5 0 .8.6.4 1L21 35Z"/></svg>